<svg xmlns="http://www.w3.org/2000/svg" width="200" height="40" viewBox="0 0 200 40">
  <rect width="200" height="40" fill="none"/>
  <g fill="#000000">
    <!-- B -->
    <path d="M4 8h10c4.5 0 7 2 7 5.5 0 2.2-1.2 3.8-3.2 4.5 2.5.7 4 2.8 4 5.3 0 4-2.8 6.7-7.5 6.7H4V8zm9.5 8.5c2 0 3.2-1 3.2-2.8 0-1.8-1.2-2.7-3.2-2.7H8.5v5.5h5zm.5 9c2.2 0 3.5-1.1 3.5-3 0-1.9-1.3-3-3.5-3H8.5v6h5.5z"/>
    <!-- O -->
    <path d="M30.5 7.5c6.5 0 11 4.5 11 11.5s-4.5 11.5-11 11.5S19.5 25.5 19.5 19 24 7.5 30.5 7.5zm0 19c4 0 6.5-3 6.5-7.5s-2.5-7.5-6.5-7.5-6.5 3-6.5 7.5 2.5 7.5 6.5 7.5z"/>
    <!-- A -->
    <path d="M52 8h5l10 22h-4.8l-2.2-5.5H49.5L47.3 30H42.5L52 8zm4.8 13L54.5 14l-2.3 7h4.6z"/>
    <!-- T -->
    <path d="M70 8h18v4h-6.8v18H77V12h-7V8z"/>
    <!-- W -->
    <path d="M89 8h4.5l4 15 4.5-15h3.8l4.5 15 4-15h4.5l-6.3 22h-4.2l-4.5-14.5L99.5 30h-4.2L89 8z"/>
    <!-- O -->
    <path d="M123 7.5c6.5 0 11 4.5 11 11.5s-4.5 11.5-11 11.5-11-4.5-11-11.5 4.5-11.5 11-11.5zm0 19c4 0 6.5-3 6.5-7.5s-2.5-7.5-6.5-7.5-6.5 3-6.5 7.5 2.5 7.5 6.5 7.5z"/>
    <!-- R -->
    <path d="M138 8h10.5c5 0 7.8 2.8 7.8 7 0 3.5-1.8 5.8-5 6.7l5.7 8.3h-5.2l-5.2-7.8h-4.2V30H138V8zm10 11c2.5 0 3.8-1.3 3.8-3.5S150.5 12 148 12h-5.5v7h5.5z"/>
    <!-- K -->
    <path d="M160 8h4.5v9.5l9-9.5h5.5l-9.5 10 10 12h-5.5l-7.5-9.5-2 2.2V30H160V8z"/>
  </g>
</svg>
